<svg xmlns="http://www.w3.org/2000/svg" viewBox="0 0 1366 493" preserveAspectRatio="xMidYMid" width="1366" height="493" style="shape-rendering: auto; display: block; background: rgb(255, 255, 255);"><g data-idx="1"><linearGradient y2="0" y1="0" x2="1" x1="0" id="lg-nq4q5u6dq7r" data-idx="2">
  <stop offset="0" stop-color="#ff00ff" data-idx="3"></stop>
  <stop offset="1" stop-color="#00ffff" data-idx="4"></stop>
</linearGradient><path opacity="0.4" fill="url(#lg-nq4q5u6dq7r)" d="M 0 0 L 0 281.45 Q 136.6 346.913 273.2 305.264 T 546.4 222.565 T 819.6 234.088 T 1092.8 210.657 T 1366 125.119 L 1366 0 Z" data-idx="5">
  
</path><path opacity="0.4" fill="url(#lg-nq4q5u6dq7r)" d="M 0 0 L 0 292.799 Q 136.6 320.482 273.2 297.256 T 546.4 281.751 T 819.6 259.351 T 1092.8 178.946 T 1366 149.751 L 1366 0 Z" data-idx="7">
  
</path><path opacity="0.4" fill="url(#lg-nq4q5u6dq7r)" d="M 0 0 L 0 353.465 Q 136.6 338.662 273.2 304.896 T 546.4 260.703 T 819.6 266.226 T 1092.8 183.858 T 1366 152.175 L 1366 0 Z" data-idx="9">
  
</path><path opacity="0.4" fill="url(#lg-nq4q5u6dq7r)" d="M 0 0 L 0 307.473 Q 136.6 311.651 273.2 277.312 T 546.4 238.552 T 819.6 260.774 T 1092.8 192.326 T 1366 193.314 L 1366 0 Z" data-idx="11">
  
</path><path opacity="0.4" fill="url(#lg-nq4q5u6dq7r)" d="M 0 0 L 0 348.266 Q 136.6 357.012 273.2 317.941 T 546.4 230.545 T 819.6 195.14 T 1092.8 196.456 T 1366 165.673 L 1366 0 Z" data-idx="13">
  
</path><g data-idx="15"></g></g><text data-watermark="true" text-anchor="middle" dominant-baseline="middle" stroke-opacity="0.1" fill="black" fill-opacity="0.1" stroke="white" stroke-width="1" font-size="15.0" x="683.0" y="246.5" data-idx="16" style="opacity: 1; font-size: 15px;">LOADING.IO</text></svg>